# xmcd
#
# Track frame offsets:
#	150
#	11787
#	30117
#	46042
#	63568
#	81426
#	94895
#	112049
#	126026
#	146329
#	164298
#	178847
#	192831
#	209058
#
# Disc length: 3026 seconds
#
# Revision: 1
# Processed by: cddbd v1.5.1PL0 Copyright (c) Steve Scherf et al.
# Submitted via: audiograbber 1.83.01
#
DISCID=c10bd00e
DTITLE=Hot Hits - HHC vol 103
DYEAR=1900
DGENRE=
TTITLE0=Jackson, Alan - www.memory
TTITLE1=Travis Tritt - Best of Intentions
TTITLE2=Dixie Chicks - without you
TTITLE3=Billy Ray Cyrus - you wont be lonely now
TTITLE4=Lee Ann Womack - ashes by now
TTITLE5=Montomery Gentry - all night long
TTITLE6=Lonestar - tell her
TTITLE7=Darryl Worley - a good day to run
TTITLE8=Keith Urban - but for the grace of god
TTITLE9=Carolyn Dawn Johnson - georgia
TTITLE10=Andy Griggs - you made me that way
TTITLE11=Rascal Flatts - this everyday love
TTITLE12=Toby Keith - you shouldnt kiss me like this
TTITLE13=She Daisy - lucky 4 you (tonight im just me)
EXTD=
EXTT0=
EXTT1=
EXTT2=
EXTT3=
EXTT4=
EXTT5=
EXTT6=
EXTT7=
EXTT8=
EXTT9=
EXTT10=
EXTT11=
EXTT12=
EXTT13=
PLAYORDER=
